<svg height="1024" viewBox="0 0 1024 1024" width="1024" xmlns="http://www.w3.org/2000/svg"><g fill="none" fill-rule="evenodd"><circle cx="512" cy="512" fill="#1969ff" r="512"/><path d="m480.952632 162.820404c17.249582-9.093872 43.496375-9.093872 60.745957 0l176.016712 92.795034c10.388932 5.476498 16.094435 13.637752 17.11651 22.062778h.168189v466.431939c-.229181 9.190518-5.988283 18.319244-17.284699 24.274404l-176.016712 92.795182c-17.249582 9.093679-43.496375 9.093679-60.745957 0l-176.01625-92.795182c-11.248916-5.930259-16.647428-15.122622-16.914775-24.274404-.027446-.938881-.029849-1.712674-.000832-2.349969l.000832-460.941608c-.026245-.648362-.026522-1.293958-.000647-1.936787l.000647-1.203575h.078642c.781804-8.518176 6.228369-16.470995 16.836133-22.062778zm226.047368 374.179596-165.355182 87.459967c-17.224556 9.111145-43.433268 9.111145-60.657824 0l-164.986994-87.265012v205.474284l164.986994 86.80211c9.750062 5.216664 19.88769 10.299354 29.759559 10.521104l.569353.007547c9.85249.032183 19.417997-4.977515 29.117306-9.720188l166.566788-88.358978zm-446.576159 197c0 17.880605 2.059701 29.633063 6.149284 37.912197 3.38963 6.862676 8.475539 12.106804 17.762078 18.488714l.530088.361728c2.038022 1.38693 4.283048 2.839377 7.015901 4.545588l3.222691 1.991347 9.896117 6.025719-14.19371 23.674707-11.076304-6.749174-1.861753-1.153468c-3.202567-1.995039-5.857028-3.707709-8.332932-5.392696-26.466849-18.002411-36.337585-37.629828-36.532354-78.460762l-.002947-1.2439zm237.576159-321c-1.280718.440417-2.48116.951152-3.575491 1.530355l-175.74798 93.093533c-.184449.097151-.360317.194301-.527696.289602l-.148833.086047.275982.159143.400547.217432 175.74798 93.093533c1.094331.579203 2.294773 1.089938 3.575491 1.530355zm28 0v190c1.281635-.440417 2.482071-.951152 3.576397-1.530355l175.746339-93.093533c.184541-.097151.360777-.194301.527786-.289602l.149478-.086973-.275888-.158217-.401376-.217432-175.746339-93.093533c-1.094326-.579203-2.294762-1.089938-3.576397-1.530355zm181-102-158 83 158 83zm-391 0v166l158-83zm213.422488-123.372886c-9.147348-4.836152-25.697536-4.836152-34.844883 0l-175.900489 92.996597c-.184609.097974-.36063.1941-.528154.290226l-.148962.085959.276221.158053.400895.218132 175.900489 92.996319c9.147347 4.8368 25.697535 4.8368 34.844883 0l175.899657-92.996319c.184702-.097974.361092-.1941.528247-.289302l.149608-.086883-.276129-.158053-.401726-.218132zm203.771333 9.372886 11.07643 6.749273 1.86147 1.153193c3.202459 1.994487 5.856997 3.708081 8.333164 5.392239 26.466714 18.002798 36.337534 37.630419 36.532371 78.461394l.002744 1.243901h-27.423519c0-17.881545-2.059965-29.633093-6.14971-37.913158-3.389064-6.862036-8.474947-12.106354-17.761256-18.487624l-.530542-.362467c-2.038012-1.386193-4.282752-2.838642-7.015957-4.545223l-3.222583-1.991442-9.896433-6.025355z" fill="#fff" fill-rule="nonzero"/></g></svg>