<?xml version="1.0" encoding="utf-8"?>
<!-- Generator: Adobe Illustrator 26.5.0, SVG Export Plug-In . SVG Version: 6.00 Build 0)  -->
<svg version="1.1" id="Layer_1" xmlns="http://www.w3.org/2000/svg" xmlns:xlink="http://www.w3.org/1999/xlink" x="0px" y="0px"
	 viewBox="0 0 320 320" style="enable-background:new 0 0 320 320;" xml:space="preserve">
<style type="text/css">
	.st0{fill:none;stroke:#F5C09A;stroke-width:9.92;stroke-linecap:round;stroke-linejoin:round;}
	.st1{fill:#F5C09A;stroke:#F5C09A;stroke-width:9.92;stroke-linecap:round;stroke-linejoin:round;}
</style>
<g>
	<circle class="st0" cx="160" cy="160.5" r="148.8"/>
	<path class="st0" d="M203.1,153.5c15.8,12.6,25.9,32.1,25.9,53.9c0,38.1-30.9,69-69,69s-69-30.9-69-69c0-21.3,9.6-40.3,24.7-52.9"
		/>
	<path class="st0" d="M96.5,102.5c16.3,0,29.5,13.2,29.5,29.5c0,9.1-4.1,17.2-10.6,22.6"/>
	<path class="st0" d="M203.4,153.7c-5.8-5.4-9.5-13.1-9.5-21.6c0-16.3,13.2-29.5,29.5-29.5"/>
	<line class="st0" x1="122.6" y1="90.9" x2="196.8" y2="90.9"/>
	<line class="st0" x1="94.5" y1="190.2" x2="225.4" y2="190.2"/>
	<circle class="st1" cx="170.2" cy="242" r="6.4"/>
	<circle class="st1" cx="145" cy="215" r="5.6"/>
	<circle class="st1" cx="173.2" cy="161.4" r="4.4"/>
	<line class="st0" x1="172.3" y1="123.7" x2="172.3" y2="46.9"/>
	<line class="st0" x1="147.8" y1="123.7" x2="147.8" y2="46.9"/>
</g>
</svg>
