<?xml version="1.0" encoding="UTF-8"?>
<svg id="Layer_1" data-name="Layer 1" xmlns="http://www.w3.org/2000/svg" version="1.1" viewBox="0 0 1080 140">
  <defs>
    <style>
      .cls-1 {
        fill: #fff;
        fill-opacity: .8;
        isolation: isolate;
        stroke-width: 0px;
      }

      .cls-2 {
        opacity: .3;
      }
    </style>
  </defs>
  <g class="cls-2">
    <path class="cls-1" d="M133.6,98.7c.1-.9.9-1.5,1.8-1.3.9.1,1.5.9,1.3,1.8-.1.9-.9,1.5-1.8,1.3-.9-.1-1.5-.9-1.3-1.8Z"/>
    <path class="cls-1" d="M168.9,42.1c.1-1,1.1-1.7,2.1-1.6,1,.1,1.7,1.1,1.6,2.1-.1,1-1.1,1.7-2.1,1.6-1-.1-1.7-1.1-1.6-2.1Z"/>
    <path class="cls-1" d="M58.3,114.3c.8.1,1.6-.5,1.7-1.3.1-.8-.5-1.6-1.3-1.7-.8-.1-1.6.5-1.7,1.3-.1.8.5,1.6,1.3,1.7Z"/>
    <path class="cls-1" d="M51.2,50.2c.9.1,1.7-.5,1.8-1.4.1-.9-.5-1.7-1.4-1.8-.9-.1-1.7.5-1.8,1.4-.1.9.5,1.7,1.4,1.8Z"/>
    <path class="cls-1" d="M72.3,38.1c.3,0,.7-.2.7-.5,0-.3-.2-.7-.5-.7-.3,0-.7.2-.7.5,0,.3.2.7.5.7Z"/>
    <path class="cls-1" d="M609.6,88.4c.4,0,.8-.2.9-.7,0-.4-.2-.8-.7-.9-.4,0-.8.2-.9.7,0,.4.2.8.7.9Z"/>
    <path class="cls-1" d="M33,124.5c.8.1,1.6-.5,1.7-1.3.1-.8-.5-1.6-1.3-1.7-.8-.1-1.6.5-1.7,1.3-.1.8.5,1.6,1.3,1.7Z"/>
    <path class="cls-1" d="M7.9,106.3c.8.1,1.6-.5,1.7-1.3.1-.8-.5-1.6-1.3-1.7-.8-.1-1.6.5-1.7,1.3-.1.8.5,1.6,1.3,1.7Z"/>
    <path class="cls-1" d="M573.5,119.1c.6,0,1.2-.4,1.3-1s-.4-1.2-1-1.3c-.6,0-1.2.4-1.3,1,0,.6.4,1.2,1,1.3Z"/>
    <path class="cls-1" d="M547.3,100.3c.7,0,1.3-.4,1.4-1.1s-.4-1.3-1.1-1.4c-.7,0-1.3.4-1.4,1.1,0,.7.4,1.3,1.1,1.4Z"/>
    <path class="cls-1" d="M96.7,98c.5,0,1-.3,1.1-.8,0-.5-.3-1-.8-1.1-.5,0-1,.3-1.1.8,0,.5.3,1,.8,1.1Z"/>
    <path class="cls-1" d="M333.3,55.8c.7,0,1.4-.4,1.5-1.1,0-.7-.4-1.4-1.1-1.5-.7,0-1.4.4-1.5,1.1,0,.7.4,1.4,1.1,1.5Z"/>
    <path class="cls-1" d="M353.1,106.7c.5,0,.9-.3,1-.8,0-.5-.3-.9-.8-1-.5,0-.9.3-1,.8,0,.5.3.9.8,1Z"/>
    <path class="cls-1" d="M249.1,56.9c.7.1,1.4-.4,1.5-1.2.1-.7-.4-1.4-1.2-1.5-.7-.1-1.4.4-1.5,1.2-.1.7.4,1.4,1.2,1.5Z"/>
    <path class="cls-1" d="M278.2,19.4c.9.1,1.7-.5,1.8-1.4.1-.9-.5-1.7-1.4-1.8-.9-.1-1.7.5-1.8,1.4-.1.9.5,1.7,1.4,1.8Z"/>
    <path class="cls-1" d="M342.5,45.7c.9.1,1.8-.5,1.9-1.4.1-.9-.5-1.8-1.4-1.9-.9-.1-1.8.5-1.9,1.4-.1.9.5,1.8,1.4,1.9Z"/>
    <path class="cls-1" d="M308.7,98.9c.7,0,1.3-.4,1.4-1.1,0-.7-.4-1.3-1.1-1.4-.7,0-1.3.4-1.4,1.1,0,.7.4,1.3,1.1,1.4Z"/>
    <path class="cls-1" d="M431.2,47.4c1.1.2,2.1-.6,2.3-1.7.2-1.1-.6-2.1-1.7-2.3-1.1-.2-2.1.6-2.3,1.7-.2,1.1.6,2.1,1.7,2.3Z"/>
    <path class="cls-1" d="M487.6,97.9c1.3.2,2.5-.7,2.6-2,.2-1.3-.7-2.5-2-2.6-1.3-.2-2.5.7-2.6,2-.2,1.3.7,2.5,2,2.6Z"/>
    <path class="cls-1" d="M498.3,119.8c1.2.2,2.3-.7,2.5-1.9.2-1.2-.7-2.3-1.9-2.5-1.2-.2-2.3.7-2.5,1.9-.2,1.2.7,2.3,1.9,2.5Z"/>
    <path class="cls-1" d="M1071.9,120.6c1,.1,2-.6,2.1-1.6.1-1-.6-2-1.6-2.1-1-.1-2,.6-2.1,1.6-.1,1,.6,2,1.6,2.1Z"/>
    <path class="cls-1" d="M897.2,121.7c1.2.2,2.3-.7,2.4-1.9.2-1.2-.7-2.3-1.9-2.4-1.2-.2-2.3.7-2.4,1.9-.2,1.2.7,2.3,1.9,2.4Z"/>
    <path class="cls-1" d="M727,81.6c1.3.2,2.5-.7,2.7-2,.2-1.3-.7-2.5-2-2.7-1.3-.2-2.5.7-2.7,2-.2,1.3.7,2.5,2,2.7Z"/>
    <path class="cls-1" d="M727.5,45c.7.1,1.4-.4,1.5-1.2.1-.7-.4-1.4-1.2-1.5-.7-.1-1.4.4-1.5,1.2-.1.7.4,1.4,1.2,1.5Z"/>
    <path class="cls-1" d="M806.4,86.9c.7,0,1.3-.4,1.4-1.1,0-.7-.4-1.3-1.1-1.4-.7,0-1.3.4-1.4,1.1,0,.7.4,1.3,1.1,1.4Z"/>
    <path class="cls-1" d="M719.1,55c.8.1,1.6-.5,1.7-1.3.1-.8-.5-1.6-1.3-1.7-.8-.1-1.6.5-1.7,1.3-.1.8.5,1.6,1.3,1.7Z"/>
    <path class="cls-1" d="M923.8,109.1c.7,0,1.3-.4,1.3-1,0-.7-.4-1.3-1-1.3-.7,0-1.3.4-1.3,1,0,.7.4,1.3,1,1.3Z"/>
    <path class="cls-1" d="M950,119.1c.8.1,1.5-.4,1.6-1.2.1-.8-.4-1.5-1.2-1.6-.8-.1-1.5.4-1.6,1.2-.1.8.4,1.4,1.2,1.6Z"/>
    <path class="cls-1" d="M646.6,62.4c1.3.2,2.5-.7,2.6-2,.2-1.3-.7-2.5-2-2.6-1.3-.2-2.5.7-2.6,2-.2,1.3.7,2.5,2,2.6Z"/>
  </g>
</svg>